# xmcd CD database file
#
# Track frame offsets:
#	150
#	17772
#	38805
#	58895
#	78127
#	99912
#	123297
#	142002
#	165065
#	183787
#	200807
#	210975
#	233002
#	258312
#	279800
#	298812
#
# Disc length: 4223 seconds
#
# Revision: 0
# Processed by: cddbd v1.5.1PL0 Copyright (c) Steve Scherf et al.
# Submitted via: CDex 1.51
#
DISCID=d1107d10
DTITLE=飯島真理 - The Ultimate Collection (1983-1985)
DYEAR=2005
DGENRE=JPop
TTITLE0=ガラスのこびん
TTITLE1=ひまわり
TTITLE2=シグナル
TTITLE3=シンデレラ
TTITLE4=天使の絵の具
TTITLE5=愛・おぼえていますか
TTITLE6=１グラムの幸福
TTITLE7=いつものパーティー
TTITLE8=ひとりぼっちが好き
TTITLE9=恋は気ままに
TTITLE10=もののかたち-Marron
TTITLE11=セシールの雨傘
TTITLE12=瞳はエンジェル
TTITLE13=名前のないアベニュー
TTITLE14=3つのルール-Reprise
TTITLE15=Wonderful People
EXTD=YEAR: 2005
EXTT0=
EXTT1=
EXTT2=
EXTT3=
EXTT4=
EXTT5=
EXTT6=
EXTT7=
EXTT8=
EXTT9=
EXTT10=
EXTT11=
EXTT12=
EXTT13=
EXTT14=
EXTT15=
PLAYORDER=
